<?xml version="1.0" encoding="UTF-8"?>
<!DOCTYPE svg PUBLIC "-//W3C//DTD SVG 1.1//EN" "http://www.w3.org/Graphics/SVG/1.1/DTD/svg11.dtd">
<!-- Creator: CorelDRAW 2019 (64-Bit) -->
<svg xmlns="http://www.w3.org/2000/svg" xml:space="preserve" width="409.032mm" height="66.1082mm" version="1.1" style="shape-rendering:geometricPrecision; text-rendering:geometricPrecision; image-rendering:optimizeQuality; fill-rule:evenodd; clip-rule:evenodd"
viewBox="0 0 41776.7 6752"
 xmlns:xlink="http://www.w3.org/1999/xlink">
 <defs>
  <style type="text/css">
   <![CDATA[
    .str1 {stroke:#EFEFEF;stroke-width:144.12;stroke-miterlimit:22.9256}
    .str2 {stroke:#EFEFEF;stroke-width:108.09;stroke-miterlimit:22.9256}
    .str0 {stroke:#EFEFEF;stroke-width:180.16;stroke-miterlimit:22.9256}
    .fil1 {fill:#29C5E6}
    .fil0 {fill:#333336}
    .fil4 {fill:#6BE629}
    .fil2 {fill:#A729E6}
    .fil6 {fill:#CAE629}
    .fil5 {fill:#E629C7}
    .fil3 {fill:#E64929}
    .fil7 {fill:#29C5E6;fill-rule:nonzero}
    .fil8 {fill:#EFEFEF;fill-rule:nonzero}
   ]]>
  </style>
 </defs>
 <rect class="fil0" x="-1002.8" y="-5327.33" width="42896.94" height="30334.26"/>
 <g id="Слой_x0020_4">
  <metadata id="CorelCorpID_0Corel-Layer"/>
  <circle class="fil1 str0" transform="matrix(0.999991 -0.00426063 0.00426063 0.999991 14172.5 533.85)" r="408.54"/>
  <g id="_2354357902976">
   <path class="fil1 str0" d="M14175.68 1269.22c225.63,-0.96 409.32,181.17 410.28,406.8 0.96,225.63 -181.18,409.32 -406.8,410.28 -225.63,0.96 -409.32,-181.17 -410.28,-406.8 -0.97,-225.63 181.17,-409.32 406.8,-410.28z"/>
   <path class="fil1 str0" d="M14180.55 2413.13c225.63,-0.96 409.32,181.17 410.28,406.8 0.96,225.63 -181.18,409.32 -406.8,410.28 -225.63,0.96 -409.32,-181.17 -410.28,-406.8 -0.97,-225.63 181.17,-409.32 406.8,-410.28z"/>
   <path class="fil1 str0" d="M14185.44 3557.03c225.63,-0.96 409.32,181.17 410.28,406.8 0.96,225.63 -181.18,409.32 -406.8,410.28 -225.63,0.96 -409.32,-181.17 -410.28,-406.8 -0.97,-225.63 181.17,-409.32 406.8,-410.28z"/>
   <path class="fil1 str0" d="M14190.31 4700.94c225.63,-0.96 409.32,181.17 410.28,406.8 0.96,225.63 -181.18,409.32 -406.8,410.28 -225.63,0.96 -409.32,-181.17 -410.28,-406.8 -0.97,-225.63 181.17,-409.32 406.8,-410.28z"/>
  </g>
  <circle class="fil1 str0" transform="matrix(0.999991 -0.00426063 0.00426063 0.999991 14196.9 6253.39)" r="408.54"/>
  <circle class="fil1 str1" transform="matrix(0.747493 -0.00318482 0.00318482 0.747493 15504.4 1242.11)" r="408.54"/>
  <g id="_2354357874176">
   <path class="fil2 str1" d="M15507.63 2009.65c168.66,-0.71 305.97,135.42 306.69,304.08 0.71,168.66 -135.43,305.97 -304.09,306.68 -168.66,0.73 -305.97,-135.42 -306.68,-304.08 -0.71,-168.66 135.43,-305.97 304.08,-306.68z"/>
   <path class="fil3 str1" d="M15512.21 3082.57c168.66,-0.71 305.97,135.43 306.68,304.09 0.71,168.65 -135.43,305.96 -304.08,306.68 -168.66,0.71 -305.97,-135.43 -306.69,-304.09 -0.71,-168.66 135.43,-305.96 304.09,-306.68z"/>
   <path class="fil4 str1" d="M15516.77 4155.5c168.66,-0.71 305.97,135.43 306.69,304.09 0.71,168.65 -135.43,305.96 -304.09,306.68 -168.66,0.71 -305.97,-135.43 -306.68,-304.09 -0.71,-168.66 135.43,-305.96 304.08,-306.68z"/>
  </g>
  <circle class="fil1 str1" transform="matrix(0.747493 -0.00318482 0.00318482 0.747493 15522.6 5533.81)" r="408.54"/>
  <circle class="fil1 str2" transform="matrix(0.54627 -0.00232748 0.00232748 0.54627 16530.2 1815.41)" r="408.54"/>
  <g id="_2354357887072">
   <path class="fil2 str2" d="M16532.6 2376.33c123.25,-0.53 223.6,98.97 224.13,222.23 0.52,123.25 -98.97,223.6 -222.23,224.12 -123.26,0.53 -223.6,-98.97 -224.13,-222.22 -0.52,-123.26 98.97,-223.61 222.23,-224.13z"/>
   <path class="fil3 str2" d="M16535.94 3160.42c123.26,-0.52 223.61,98.97 224.13,222.23 0.53,123.26 -98.97,223.61 -222.23,224.13 -123.25,0.52 -223.6,-98.97 -224.13,-222.23 -0.52,-123.25 98.98,-223.6 222.23,-224.13z"/>
   <path class="fil4 str2" d="M16539.28 3944.52c123.26,-0.52 223.61,98.97 224.13,222.23 0.53,123.26 -98.97,223.61 -222.23,224.13 -123.25,0.52 -223.6,-98.97 -224.13,-222.23 -0.52,-123.25 98.98,-223.6 222.23,-224.13z"/>
  </g>
  <circle class="fil1 str2" transform="matrix(0.54627 -0.00232748 0.00232748 0.54627 16543.6 4951.79)" r="408.54"/>
  <circle class="fil1 str2" transform="matrix(0.54627 -0.00232748 0.00232748 0.54627 17453 2249.59)" r="408.54"/>
  <g id="_2354357899360">
   <path class="fil5 str2" d="M17455.26 2786.4c123.25,-0.52 223.6,98.97 224.13,222.23 0.52,123.26 -98.97,223.61 -222.23,224.13 -123.26,0.52 -223.61,-98.97 -224.13,-222.23 -0.52,-123.25 98.97,-223.6 222.23,-224.13z"/>
   <path class="fil6 str2" d="M17458.5 3546.4c123.26,-0.53 223.6,98.97 224.13,222.22 0.52,123.26 -98.97,223.61 -222.23,224.13 -123.26,0.53 -223.6,-98.97 -224.13,-222.22 -0.52,-123.26 98.97,-223.61 222.23,-224.13z"/>
  </g>
  <circle class="fil1 str2" transform="matrix(0.54627 -0.00232748 0.00232748 0.54627 17462.7 4529.56)" r="408.54"/>
  <circle class="fil1 str0" transform="matrix(-0.999991 0.00426063 0.00426063 0.999991 22442.9 498.612)" r="408.54"/>
  <g id="_2354357899840">
   <path class="fil1 str0" d="M22446.04 1233.98c-225.62,0.96 -407.76,184.65 -406.8,410.28 0.96,225.63 184.66,407.76 410.28,406.8 225.63,-0.96 407.77,-184.65 406.81,-410.28 -0.97,-225.63 -184.66,-407.76 -410.29,-406.8z"/>
   <path class="fil1 str0" d="M22450.91 2377.89c-225.62,0.96 -407.76,184.65 -406.8,410.28 0.96,225.63 184.66,407.76 410.28,406.8 225.63,-0.96 407.77,-184.65 406.81,-410.28 -0.97,-225.63 -184.66,-407.76 -410.29,-406.8z"/>
   <path class="fil1 str0" d="M22455.79 3521.8c-225.62,0.96 -407.76,184.65 -406.8,410.28 0.96,225.63 184.65,407.76 410.28,406.8 225.63,-0.96 407.77,-184.65 406.8,-410.28 -0.96,-225.63 -184.65,-407.76 -410.28,-406.8z"/>
   <path class="fil1 str0" d="M22460.66 4665.71c-225.62,0.96 -407.76,184.65 -406.8,410.28 0.96,225.63 184.65,407.76 410.28,406.8 225.63,-0.96 407.77,-184.65 406.8,-410.28 -0.96,-225.63 -184.65,-407.76 -410.28,-406.8z"/>
  </g>
  <circle class="fil1 str0" transform="matrix(-0.999991 0.00426063 0.00426063 0.999991 22467.3 6218.15)" r="408.54"/>
  <circle class="fil1 str1" transform="matrix(-0.747493 0.00318482 0.00318482 0.747493 21117.2 1218.19)" r="408.54"/>
  <g id="_2354418342464">
   <path class="fil4 str1" d="M21120.45 1985.73c-168.65,0.71 -304.79,138.03 -304.08,306.68 0.73,168.66 138.03,304.79 306.68,304.08 168.66,-0.71 304.8,-138.03 304.09,-306.68 -0.73,-168.66 -138.04,-304.8 -306.69,-304.08z"/>
   <path class="fil3 str1" d="M21125.03 3058.66c-168.66,0.71 -304.8,138.03 -304.09,306.68 0.73,168.66 138.04,304.8 306.69,304.08 168.65,-0.71 304.79,-138.03 304.08,-306.68 -0.71,-168.66 -138.03,-304.8 -306.68,-304.08z"/>
   <path class="fil2 str1" d="M21129.59 4131.59c-168.65,0.71 -304.79,138.03 -304.08,306.68 0.73,168.66 138.03,304.8 306.68,304.08 168.66,-0.71 304.8,-138.03 304.09,-306.68 -0.73,-168.66 -138.04,-304.8 -306.69,-304.08z"/>
  </g>
  <circle class="fil1 str1" transform="matrix(-0.747493 0.00318482 0.00318482 0.747493 21135.5 5509.89)" r="408.54"/>
  <circle class="fil1 str2" transform="matrix(-0.54627 0.00232748 0.00232748 0.54627 20096.3 1800.21)" r="408.54"/>
  <g id="_2354415117088">
   <path class="fil4 str2" d="M20098.65 2361.13c-123.26,0.53 -222.75,100.88 -222.23,224.13 0.52,123.26 100.87,222.75 224.13,222.23 123.26,-0.53 222.75,-100.87 222.23,-224.13 -0.53,-123.26 -100.88,-222.75 -224.13,-222.23z"/>
   <path class="fil3 str2" d="M20101.98 3145.23c-123.26,0.52 -222.75,100.87 -222.23,224.13 0.53,123.25 100.88,222.75 224.13,222.22 123.26,-0.52 222.75,-100.87 222.23,-224.13 -0.52,-123.25 -100.87,-222.75 -224.13,-222.22z"/>
   <path class="fil2 str2" d="M20105.32 3929.33c-123.26,0.52 -222.75,100.87 -222.23,224.13 0.53,123.25 100.88,222.75 224.13,222.22 123.26,-0.52 222.75,-100.87 222.23,-224.13 -0.52,-123.25 -100.87,-222.75 -224.13,-222.22z"/>
  </g>
  <circle class="fil1 str2" transform="matrix(-0.54627 0.00232748 0.00232748 0.54627 20109.6 4936.6)" r="408.54"/>
  <circle class="fil1 str2" transform="matrix(-0.54627 0.00232748 0.00232748 0.54627 19177.2 2242.24)" r="408.54"/>
  <g id="_2354415130144">
   <path class="fil6 str2" d="M19179.51 2779.06c-123.25,0.52 -222.75,100.87 -222.22,224.13 0.52,123.26 100.87,222.75 224.12,222.23 123.26,-0.53 222.76,-100.88 222.23,-224.13 -0.52,-123.26 -100.87,-222.75 -224.13,-222.23z"/>
   <path class="fil5 str2" d="M19182.74 3539.05c-123.25,0.53 -222.75,100.88 -222.22,224.13 0.52,123.26 100.87,222.75 224.13,222.23 123.25,-0.52 222.75,-100.87 222.22,-224.13 -0.52,-123.26 -100.87,-222.75 -224.13,-222.23z"/>
  </g>
  <circle class="fil1 str2" transform="matrix(-0.54627 0.00232748 0.00232748 0.54627 19186.9 4522.22)" r="408.54"/>
  <path class="fil7" d="M1117.01 1552.16c0,99.31 -28.83,190.36 -86.03,273.65 -62.23,82.36 -128.59,137.27 -198.14,164.73l262.66 478.65c16.93,34.78 20.59,69.09 10.98,102.04 -10.98,35.7 -33.86,64.06 -68.64,84.65 -27,12.36 -50.79,18.76 -72.3,18.76 -50.79,0 -94.27,-24.71 -129.96,-74.13l-301.56 -553.7c-1.84,-3.2 -4.58,-5.94 -8.24,-7.77 -3.66,-1.83 -8.69,-3.67 -14.65,-5.49l-21.5 0 0 501.53c-0.92,36.62 -15.11,69.1 -43.02,97.93 -26.99,24.72 -60.86,38.9 -102.04,41.64 -0.92,0 -1.37,0 -1.83,0 -0.46,0 -0.46,0 -0.46,0 -38.43,0 -73.21,-13.73 -103.41,-40.26 -27.91,-28.83 -42.1,-61.78 -43.02,-99.31l0 -504.27 -49.42 0c-38.43,0 -73.21,-13.73 -104.79,-41.64 -27.45,-30.2 -41.64,-62.69 -41.64,-97.47 0,-35.69 13.73,-68.64 40.27,-97.93 31.57,-28.82 66.81,-43.01 106.16,-43.01l49.42 0 -1.37 -598.09c0,-122.17 44.39,-228.8 132.7,-318.95 92.89,-91.06 202.71,-136.82 328.55,-136.82 126.3,0 234.75,44.85 325.81,134.07 90.14,91.98 135.45,199.52 135.45,321.7l0 399.48zm-293.78 0l0 -399.48c0,-51.71 -17.38,-94.26 -52.16,-127.21 -29.29,-32.03 -67.73,-48.05 -115.32,-48.05 -46.22,0 -85.11,16.03 -116.69,48.05 -33.86,32.95 -50.79,75.5 -50.79,127.21l1.38 598.09 2.74 0c15.11,0 28.83,0.91 41.65,2.75l96.09 0c54.92,0 99.76,-19.68 135.45,-59.03 38.43,-35.7 57.66,-83.28 57.66,-142.32z"/>
  <path id="1" class="fil7" d="M10835.95 2674.65c-40.27,0 -75.05,-14.19 -104.79,-41.64 -26.55,-27.91 -41.19,-60.4 -43.02,-97.93l0 -1382.4c0,-122.17 43.93,-228.8 131.8,-318.95 94.72,-91.06 204.09,-136.82 328.09,-136.82 126.3,0 235.67,45.76 328.56,136.82 88.32,90.14 132.7,196.77 132.7,318.95l0 399.48c0,129.05 -47.14,242.07 -141.86,339.54 -95.64,93.81 -210.49,140.49 -344.57,140.49l-140.94 0 0 502.9c0,34.78 -13.27,66.36 -40.27,95.18 -27.45,26.55 -62.69,41.65 -104.33,44.39 0,0 -0.46,0 -0.92,0 -0.45,0 -0.45,0 -0.45,0 0,0 0,0 0,0zm145.97 -921.14l140.94 0c54.46,0 99.76,-19.68 136.82,-59.03 37.52,-36.61 56.29,-84.2 56.29,-142.32l0 -399.48c0,-52.62 -16.93,-94.26 -49.87,-124.46 -30.2,-33.87 -69.55,-50.8 -118.07,-50.8 -46.22,0 -85.11,16.03 -116.68,48.05 -32.95,32.03 -49.42,74.59 -49.42,127.21l0 600.83z"/>
  <path id="2" class="fil7" d="M11924.58 2674.65c-40.27,0 -75.51,-15.1 -106.17,-44.39 -27.45,-28.82 -41.64,-60.85 -41.64,-96.55l0 -1301.87c0,-34.78 14.65,-67.73 43.02,-99.3 29.74,-26.55 64.52,-39.81 104.79,-39.81 38.43,0 72.75,13.27 102.95,39.81 28.83,31.57 43.02,64.52 43.02,99.3l0 1301.87c0,35.7 -13.73,67.73 -41.64,96.55 -31.12,29.29 -65.9,44.39 -104.33,44.39zm0 -1630.42c-40.27,0 -75.51,-14.65 -106.17,-44.39 -27.45,-28.37 -41.64,-59.94 -41.64,-95.18l0 -200.89c0,-35.69 14.19,-68.19 41.64,-96.55 30.66,-29.29 65.9,-44.39 106.17,-44.39 38.43,0 73.21,15.1 104.33,44.39 27.91,28.36 41.64,60.86 41.64,96.55l0 200.89c0,35.24 -13.73,66.81 -41.64,95.18 -31.12,29.74 -65.9,44.39 -104.33,44.39z"/>
  <path id="3" class="fil8" d="M1748.49 2674.65c-125.84,0 -235.21,-44.39 -328.1,-132.7 -88.78,-90.6 -133.16,-195.84 -133.16,-316.65l0 -118.07c0,-120.35 44.39,-226.05 133.16,-316.2 92.89,-88.32 202.26,-132.69 328.1,-132.69l167.94 0 0 -118.07c0,-50.79 -17.39,-91.51 -51.25,-122.17 -30.2,-31.12 -69.1,-46.68 -116.69,-46.68l-57.66 0c-39.35,0 -74.59,-14.65 -105.71,-44.39 -27.91,-29.28 -41.64,-61.77 -41.64,-96.55 0,-34.78 13.73,-66.82 41.64,-96.56 32.03,-28.37 67.27,-42.56 105.71,-42.56l57.66 0c126.3,0 235.66,44.39 328.56,134.08 88.32,89.23 132.69,194.02 132.69,314.82l0 685.03c0,120.81 -44.38,226.05 -132.69,316.65 -92.9,88.32 -202.26,132.7 -328.56,132.7zm0 -736.27c-47.14,0 -86.03,16.01 -116.69,48.5 -33.86,31.12 -50.79,71.39 -50.79,120.35l0 118.07c0,49.41 16.93,89.23 50.79,120.81 30.66,32.03 69.55,48.04 116.69,48.04 47.58,0 86.49,-16.01 116.69,-48.04 33.86,-31.58 51.25,-71.39 51.25,-120.81l0 -286.92 -167.94 0z"/>
  <path id="4" class="fil8" d="M2830.71 2674.65c-121.71,0 -227.43,-36.61 -318.03,-108.91 -90.14,-75.96 -135.45,-164.73 -135.45,-266.78l0 -97.93c0,-34.78 14.19,-66.35 41.64,-95.18 31.58,-29.28 66.36,-43.93 104.79,-43.93 40.27,0 75.51,14.65 105.71,43.93 27.91,28.83 41.64,60.4 41.64,95.18l0 97.93c0,22.42 14.19,43.47 43.01,63.15 25.63,21.51 64.53,32.03 116.69,32.03 50.79,0 89.24,-10.52 115.32,-32.03 28.36,-19.68 42.55,-40.73 42.55,-63.15l0 -213.24 -609.97 -159.25 -1.38 -453.02c0,-102.96 45.31,-193.11 135.45,-270.89 93.35,-74.14 201.8,-111.21 325.81,-111.21 124.46,0 233.37,37.06 327.18,111.21 89.24,77.79 134.07,167.93 134.07,270.89l0 129.96c0,34.78 -14.18,67.73 -43.01,99.3 -29.28,27.46 -63.61,41.19 -102.96,41.19 -41.18,0 -75.96,-13.73 -104.79,-41.19 -28.36,-31.57 -42.55,-64.52 -42.55,-99.3l0 -129.96c0,-25.17 -15.57,-47.58 -45.77,-67.27 -27.91,-23.34 -68.64,-34.78 -122.17,-34.78 -53.54,0 -94.27,11.44 -121.73,34.78 -30.66,19.68 -45.76,42.1 -45.76,67.27l1.37 239.78 611.35 159.7 0 426.03c0,102.04 -45.3,190.82 -135.44,266.78 -90.16,72.3 -196.31,108.91 -317.58,108.91z"/>
  <path id="5" class="fil8" d="M3928.49 1089.99c126.3,0 235.21,44.39 327.18,134.07 89.24,91.06 134.07,197.68 134.07,320.33l0 675.41c0,122.63 -44.84,229.25 -134.07,320.78 -91.97,89.24 -200.88,134.07 -327.18,134.07 -38.44,0 -73.67,-3.66 -106.62,-10.06 -32.49,-6.86 -52.63,-12.36 -60.86,-16.93l0 275.93c0,36.16 -13.73,68.19 -41.64,96.56 -30.2,29.74 -65.44,44.39 -105.71,44.39 -38.43,0 -73.21,-14.65 -104.79,-44.39 -27.45,-28.37 -41.64,-60.4 -41.64,-96.56l0 -1694.49c0,-34.78 14.65,-67.73 43.02,-98.84 30.66,-27 64.98,-40.27 103.41,-40.27 26.55,0 50.79,5.04 72.3,15.11 21.51,10.52 34.78,20.13 40.27,28.82 19.67,-10.52 47.58,-20.59 84.2,-30.2 37.06,-9.15 76.42,-13.73 118.06,-13.73zm167.94 1129.81l0 -675.41c0,-50.8 -17.85,-92.89 -52.63,-126.3 -29.28,-32.03 -67.73,-48.04 -115.31,-48.04 -47.14,0 -85.57,16.01 -115.32,48.04 -34.78,33.41 -52.16,75.5 -52.16,126.3l0 675.41c0,51.25 17.38,93.35 52.16,126.3 29.75,32.03 68.19,48.04 115.32,48.04 47.58,0 86.03,-16.01 115.31,-48.04 34.78,-32.95 52.63,-75.05 52.63,-126.3z"/>
  <path id="6" class="fil8" d="M5018.49 1089.99c126.3,0 235.21,44.39 327.18,134.07 89.24,91.06 134.07,197.68 134.07,320.33l0 674.04c0,122.63 -44.38,228.79 -132.69,319.4 -92.9,90.14 -202.26,135.45 -328.56,135.45 -41.18,0 -80.08,-4.58 -117.15,-13.73 -37.06,-8.69 -65.44,-19.22 -85.11,-30.66 -5.49,8.69 -18.76,18.76 -40.27,29.28 -21.51,10.99 -45.76,16.47 -72.3,16.47 -38.43,0 -73.21,-15.1 -104.79,-44.39 -27.45,-28.82 -41.64,-60.85 -41.64,-96.55l0 -1694.49c0,-34.78 14.65,-68.19 43.02,-99.3 30.66,-27 64.98,-40.27 103.41,-40.27 40.27,0 75.05,13.27 104.33,40.27 28.83,31.11 43.02,64.52 43.02,99.3l0 277.31c8.23,-4.58 28.37,-10.07 60.86,-16.47 32.95,-6.86 68.18,-10.07 106.62,-10.07zm167.94 1128.44l0 -674.04c0,-50.8 -16.93,-91.98 -49.88,-123.55 -31.12,-33.87 -70.47,-50.79 -118.06,-50.79 -47.14,0 -86.49,16.92 -118.06,50.79 -32.95,31.57 -49.42,72.75 -49.42,123.55l0 674.04c0,52.16 17.38,94.26 52.16,126.29 29.75,32.04 68.19,48.05 115.32,48.05 47.58,0 86.03,-16.01 115.31,-48.05 34.78,-32.03 52.63,-74.13 52.63,-126.29z"/>
  <path id="7" class="fil8" d="M6166.15 2674.65l-57.66 0c-125.84,0 -235.21,-44.39 -328.1,-132.7 -88.78,-90.6 -133.16,-195.84 -133.16,-316.65l0 -685.03c0,-120.81 44.39,-225.6 133.16,-314.82 92.89,-89.7 202.26,-134.08 328.1,-134.08 126.3,0 235.21,44.39 327.18,134.08 89.24,89.23 134.07,194.02 134.07,314.82l0 118.07c0,119.89 -44.84,224.68 -134.07,314.82 -91.97,88.78 -200.88,132.7 -327.18,132.7l-167.48 0 0 119.44c0,49.87 16.93,90.14 50.79,120.81 29.74,32.03 68.65,48.04 116.69,48.04l57.66 0c38.44,0 73.22,15.11 104.79,44.39 27.45,28.37 41.64,60.4 41.64,95.18 0,35.7 -14.19,67.73 -41.64,96.55 -31.57,29.29 -66.35,44.39 -104.79,44.39zm-225.14 -848.84l167.48 0c47.58,0 86.49,-15.57 116.69,-46.68 33.86,-31.58 51.25,-71.85 51.25,-120.81l0 -118.07c0,-50.79 -17.39,-91.51 -51.25,-122.17 -30.2,-31.12 -69.1,-46.68 -116.69,-46.68 -48.04,0 -86.95,15.56 -116.69,46.68 -33.86,30.66 -50.79,71.38 -50.79,122.17l0 285.55z"/>
  <path id="8" class="fil8" d="M6883.66 2674.65c-38.43,0 -73.21,-15.1 -104.79,-44.39 -27.45,-28.82 -41.64,-60.85 -41.64,-96.55l0 -993.45c0,-120.81 44.39,-225.6 133.16,-314.82 92.89,-89.7 202.26,-134.08 328.1,-134.08 126.3,0 235.66,44.39 328.56,134.08 88.32,89.23 132.69,194.02 132.69,314.82 0,34.78 -13.73,66.82 -41.64,95.18 -31.11,29.29 -65.89,44.39 -104.33,44.39 -40.26,0 -75.5,-15.1 -106.16,-44.39 -27.45,-28.36 -41.18,-60.4 -41.18,-95.18 0,-50.79 -17.39,-91.51 -51.25,-122.17 -30.2,-31.12 -69.1,-46.68 -116.69,-46.68 -47.14,0 -86.03,15.56 -116.69,46.68 -33.86,30.66 -50.79,71.38 -50.79,122.17l0 993.45c0,35.7 -13.73,67.73 -41.64,96.55 -30.2,29.29 -65.44,44.39 -105.71,44.39z"/>
  <path id="9" class="fil8" d="M7973.66 2674.65c-38.43,0 -73.21,-15.1 -104.79,-44.39 -27.45,-28.82 -41.64,-60.85 -41.64,-96.55l0 -993.45c0,-120.81 44.39,-225.6 133.16,-314.82 92.89,-89.7 202.26,-134.08 328.1,-134.08 126.3,0 235.66,44.39 328.56,134.08 88.32,89.23 132.69,194.02 132.69,314.82 0,34.78 -13.73,66.82 -41.64,95.18 -31.11,29.29 -65.89,44.39 -104.33,44.39 -40.26,0 -75.5,-15.1 -106.16,-44.39 -27.45,-28.36 -41.18,-60.4 -41.18,-95.18 0,-50.79 -17.39,-91.51 -51.25,-122.17 -30.2,-31.12 -69.1,-46.68 -116.69,-46.68 -47.14,0 -86.03,15.56 -116.69,46.68 -33.86,30.66 -50.79,71.38 -50.79,122.17l0 993.45c0,35.7 -13.73,67.73 -41.64,96.55 -30.2,29.29 -65.44,44.39 -105.71,44.39z"/>
  <path id="10" class="fil8" d="M9693.78 1088.62c38.44,0 73.68,14.19 105.71,42.55 26.99,29.75 40.26,61.78 40.26,96.56l0 2.75 0 1674.81c0,120.35 -44.38,226.06 -132.69,316.2 -92.9,88.32 -202.26,132.7 -328.56,132.7 -71.38,0 -141.4,-14.65 -210.5,-44.39 -69.55,-30.2 -125.83,-71.84 -168.85,-124.46 -47.14,-59.03 -70.92,-125.38 -70.92,-198.6 0,-36.61 13.73,-68.64 41.64,-96.55 29.28,-29.29 64.52,-43.93 105.7,-43.93 39.35,0 74.59,14.64 106.16,43.93 26.55,27.91 40.27,59.94 40.27,96.55 0,20.59 15.11,39.35 45.31,56.29 31.11,20.59 68.64,31.12 111.19,31.12 47.58,0 86.49,-16.47 116.69,-48.51 33.86,-31.11 51.25,-71.38 51.25,-120.35l0 -257.63c-8.24,4.58 -28.83,9.61 -61.32,16.01 -32.49,6.4 -68.19,9.61 -106.62,9.61 -125.84,0 -234.75,-44.39 -327.18,-132.7 -89.24,-90.6 -134.08,-195.86 -134.08,-316.66l0 -993.44c0,-35.7 14.19,-67.73 41.64,-96.56 30.66,-29.28 65.9,-43.93 106.17,-43.93 38.43,0 73.21,14.65 104.33,43.93 27.91,28.83 41.64,60.86 41.64,96.56l0 993.44c0,51.25 16.93,91.52 50.79,122.18 30.66,31.11 69.55,46.68 116.69,46.68 47.58,0 86.49,-15.57 116.69,-46.68 33.86,-30.66 51.25,-70.93 51.25,-122.18l0 -993.44 0 -2.75c0,-34.78 14.19,-67.73 42.55,-98.85 29.75,-26.99 64.53,-40.26 104.79,-40.26z"/>
  <path class="fil7" d="M26063.31 3689.39c38.99,0 71.91,13.43 98.78,39.42 27.3,28.16 40.73,59.35 40.73,94.02l0 1308.44c0,116.12 -42.03,216.2 -126.94,301.12 -87.09,86.22 -190.21,129.55 -309.79,129.55 -62.38,0 -120.01,-10.84 -172.44,-32.06 -52.42,-21.23 -94.02,-48.1 -124.34,-81.02 -31.19,32.93 -73.22,59.79 -125.65,81.02 -52.43,21.22 -110.05,32.06 -172.87,32.06 -117.4,0 -220.96,-43.33 -310.65,-129.55 -83.18,-84.92 -124.78,-185 -124.78,-301.12l0 -1308.44c0,-34.66 13,-65.43 38.13,-91.42 29.9,-28.16 63.26,-42.02 100.52,-42.02 37.26,0 70.62,13.86 100.08,42.02 26.42,25.99 39.42,56.76 39.42,91.42l0 1308.44c0,48.52 15.17,87.52 45.92,116.99 29.47,32.06 66.73,48.09 111.35,48.09 45.93,0 82.76,-15.16 110.49,-45.49 32.06,-31.19 48.52,-71.06 48.52,-119.58l0 -934.1c0,-24.27 7.36,-48.52 22.52,-72.35 32.5,-39.86 71.06,-59.79 116.99,-59.79 36.39,0 68.89,12.99 97.48,38.13 27.3,29.9 40.73,61.09 40.73,94.02l0 934.1c0,48.52 16.46,88.39 49.39,119.58 28.16,30.33 64.55,45.49 109.17,45.49 45.06,0 81.45,-15.16 109.18,-45.49 33.37,-31.19 49.83,-71.06 49.83,-119.58l0 -1308.44c0,-34.66 13.43,-65.86 40.29,-94.02 28.16,-25.99 60.65,-39.42 97.92,-39.42z"/>
  <path id="1" class="fil7" d="M35851.47 5561.94c-118.72,0 -219.66,-41.6 -303.28,-124.78 -84.06,-85.35 -126.09,-184.57 -126.09,-298.08l0 -175.04c0,-33.8 13.43,-64.99 39.43,-92.72 28.16,-27.29 61.52,-40.72 100.51,-40.72 37.26,0 70.19,13.43 98.79,40.72 26.42,27.73 39.42,58.92 39.42,92.72l0 175.04c0,46.36 14.73,83.62 44.62,111.78 27.73,30.33 63.26,45.49 106.59,45.49 42.02,0 77.11,-15.16 105.28,-45.49 29.46,-28.16 44.18,-65.42 44.18,-111.78l0 -300.69 -577.53 -196.69 -1.31 -520.78c0,-115.68 42.46,-216.63 126.94,-301.98 87.52,-86.21 190.64,-129.54 309.79,-129.54 119.58,0 222.26,42.46 308.48,126.94 85.34,87.08 128.24,188.9 128.24,304.58l0 243.92c0,34.66 -13,65.43 -39.42,92.72 -27.73,26.86 -61.09,40.29 -100.08,40.29 -37.26,0 -70.63,-13.43 -100.52,-40.29 -25.13,-28.16 -37.69,-58.92 -37.69,-92.72l0 -243.92c0,-48.96 -16.9,-89.26 -49.82,-120.45 -27.73,-30.32 -64.13,-45.49 -109.18,-45.49 -44.63,0 -81.02,15.17 -109.18,45.49 -32.93,31.19 -49.39,71.48 -49.39,120.45l1.3 334.04 577.54 196.69 0 487.42c0,113.51 -42.03,212.73 -125.65,298.08 -84.49,83.18 -185.43,124.78 -301.97,124.78z"/>
  <path id="2" class="fil8" d="M26852.71 5561.94l-54.59 0c-119.15,0 -222.7,-42.03 -310.65,-125.65 -84.06,-85.78 -126.09,-185.44 -126.09,-299.82l0 -648.58c0,-114.38 42.03,-213.6 126.09,-298.08 87.95,-84.93 191.49,-126.94 310.65,-126.94 119.58,0 222.7,42.02 309.78,126.94 84.49,84.49 126.94,183.7 126.94,298.08l0 111.78c0,113.51 -42.46,212.73 -126.94,298.08 -87.08,84.05 -190.2,125.65 -309.78,125.65l-158.58 0 0 113.07c0,47.23 16.03,85.35 48.1,114.38 28.16,30.33 64.99,45.49 110.48,45.49l54.59 0c36.39,0 69.32,14.3 99.21,42.03 25.99,26.86 39.42,57.2 39.42,90.11 0,33.8 -13.43,64.13 -39.42,91.42 -29.9,27.73 -62.82,42.03 -99.21,42.03zm-213.17 -803.69l158.58 0c45.05,0 81.88,-14.74 110.48,-44.19 32.06,-29.9 48.52,-68.02 48.52,-114.38l0 -111.78c0,-48.1 -16.46,-86.65 -48.52,-115.69 -28.6,-29.46 -65.43,-44.18 -110.48,-44.18 -45.49,0 -82.32,14.73 -110.48,44.18 -32.07,29.04 -48.1,67.59 -48.1,115.69l0 270.35z"/>
  <path id="3" class="fil8" d="M27830.13 4061.55c119.58,0 222.7,42.03 309.78,126.94 84.49,86.22 126.94,187.17 126.94,303.28l0 638.19c0,116.12 -42.03,216.63 -125.65,302.41 -87.95,85.35 -191.49,128.25 -311.07,128.25 -39,0 -75.83,-4.34 -110.92,-13 -35.09,-8.23 -61.96,-18.2 -80.58,-29.03 -5.2,8.23 -17.76,17.76 -38.13,27.73 -20.37,10.4 -43.33,15.6 -68.45,15.6 -36.4,0 -69.32,-14.3 -99.21,-42.03 -26,-27.29 -39.43,-57.62 -39.43,-91.42l0 -1604.36c0,-32.93 13.87,-64.55 40.73,-94.02 29.03,-25.56 61.52,-38.13 97.92,-38.13 38.13,0 71.06,12.56 98.78,38.13 27.3,29.47 40.73,61.09 40.73,94.02l0 262.56c7.8,-4.34 26.86,-9.54 57.62,-15.6 31.19,-6.51 64.55,-9.54 100.95,-9.54zm159 1068.42l0 -638.19c0,-48.09 -16.04,-87.08 -47.23,-116.98 -29.47,-32.06 -66.73,-48.1 -111.78,-48.1 -44.63,0 -81.89,16.04 -111.79,48.1 -31.19,29.9 -46.79,68.89 -46.79,116.98l0 638.19c0,49.39 16.46,89.26 49.39,119.58 28.16,30.32 64.55,45.49 109.18,45.49 45.05,0 81.45,-15.17 109.18,-45.49 32.92,-30.32 49.82,-70.19 49.82,-119.58z"/>
  <path id="4" class="fil8" d="M28863.45 5561.94c-119.15,0 -222.7,-43.33 -311.08,-129.55 -84.49,-85.78 -126.94,-186.3 -126.94,-302.41l0 -636.89c0,-114.38 42.03,-214.04 126.09,-299.82 87.95,-83.62 191.49,-125.65 310.65,-125.65 119.58,0 223.13,42.03 311.07,125.65 83.62,85.78 125.65,185.44 125.65,299.82 0,32.93 -13.43,64.12 -40.72,94.02 -28.6,25.13 -61.1,37.69 -97.49,37.69 -38.13,0 -71.06,-12.56 -99.21,-37.69 -26.86,-29.9 -40.29,-61.09 -40.29,-94.02 0,-46.8 -16.46,-84.93 -48.52,-114.38 -28.6,-30.33 -65.43,-45.49 -110.48,-45.49 -44.63,0 -81.45,15.16 -110.48,45.49 -32.07,29.46 -48.1,67.58 -48.1,114.38l0 636.89c0,49.39 16.03,89.69 48.1,120.88 29.03,30.33 66.29,45.49 111.78,45.49 45.92,0 83.19,-15.16 111.78,-45.49 32.06,-31.19 48.1,-71.48 48.1,-120.88l0 -48.1c0,-32.92 13.86,-64.12 40.72,-94.02 29.04,-25.13 61.53,-38.13 97.92,-38.13 38.13,0 71.06,13 98.79,38.13 27.3,29.9 40.73,61.1 40.73,94.02l0 48.1c0,116.12 -42.47,216.63 -126.95,302.41 -87.95,86.22 -191.49,129.55 -311.07,129.55z"/>
  <path id="5" class="fil8" d="M29896.78 5561.94c-119.15,0 -222.7,-42.03 -310.65,-125.65 -84.06,-85.78 -126.09,-185.44 -126.09,-299.82l0 -111.78c0,-113.94 42.03,-214.03 126.09,-299.38 87.95,-83.62 191.49,-125.65 310.65,-125.65l159 0 0 -111.78c0,-48.1 -16.46,-86.65 -48.52,-115.69 -28.6,-29.46 -65.43,-44.18 -110.48,-44.18l-54.59 0c-37.26,0 -70.63,-13.87 -100.08,-42.03 -26.43,-27.73 -39.42,-58.49 -39.42,-91.42 0,-32.93 12.99,-63.25 39.42,-91.41 30.32,-26.86 63.68,-40.29 100.08,-40.29l54.59 0c119.58,0 223.13,42.02 311.07,126.94 83.62,84.49 125.65,183.7 125.65,298.08l0 648.58c0,114.38 -42.03,214.04 -125.65,299.82 -87.95,83.62 -191.49,125.65 -311.07,125.65zm0 -697.12c-44.63,0 -81.45,15.17 -110.48,45.93 -32.07,29.46 -48.1,67.58 -48.1,113.94l0 111.78c0,46.8 16.03,84.49 48.1,114.38 29.03,30.33 65.85,45.49 110.48,45.49 45.05,0 81.88,-15.16 110.48,-45.49 32.06,-29.9 48.52,-67.58 48.52,-114.38l0 -271.65 -159 0z"/>
  <path id="6" class="fil8" d="M30921.43 5561.94c-115.25,0 -215.33,-34.66 -301.12,-103.12 -85.35,-71.92 -128.25,-155.97 -128.25,-252.59l0 -92.72c0,-32.93 13.43,-62.82 39.43,-90.11 29.9,-27.73 62.81,-41.6 99.21,-41.6 38.13,0 71.48,13.87 100.08,41.6 26.42,27.29 39.42,57.19 39.42,90.11l0 92.72c0,21.23 13.43,41.16 40.72,59.79 24.27,20.37 61.1,30.32 110.49,30.32 48.09,0 84.48,-9.96 109.17,-30.32 26.86,-18.63 40.29,-38.56 40.29,-59.79l0 -201.9 -577.53 -150.77 -1.31 -428.93c0,-97.48 42.9,-182.83 128.25,-256.48 88.38,-70.19 191.07,-105.28 308.48,-105.28 117.84,0 220.96,35.09 309.78,105.28 84.49,73.65 126.94,159 126.94,256.48l0 123.05c0,32.92 -13.43,64.12 -40.72,94.02 -27.73,25.99 -60.23,39 -97.49,39 -39,0 -71.92,-13 -99.21,-39 -26.86,-29.9 -40.29,-61.1 -40.29,-94.02l0 -123.05c0,-23.83 -14.73,-45.05 -43.33,-63.68 -26.43,-22.1 -64.99,-32.93 -115.68,-32.93 -50.69,0 -89.26,10.83 -115.25,32.93 -29.03,18.63 -43.33,39.85 -43.33,63.68l1.3 227.03 578.83 151.21 0 403.36c0,96.62 -42.89,180.67 -128.24,252.59 -85.35,68.45 -185.87,103.12 -300.68,103.12z"/>
  <path id="7" class="fil8" d="M32015.4 5296.34c38.13,0 71.05,13.43 99.21,39.43 26.86,28.59 40.72,59.79 40.72,92.71 0,34.66 -13.86,65.86 -40.72,94.03 -28.17,25.99 -61.09,39.42 -99.21,39.42l-54.59 0c-119.15,0 -221.83,-41.6 -308.48,-124.78 -85.35,-86.22 -128.25,-186.31 -128.25,-300.69l0 -1311.04c0,-32.92 13.87,-64.55 40.73,-94.02 27.29,-26.42 60.22,-39.42 99.21,-39.42 37.26,0 69.76,13 97.48,39.42 27.3,29.47 40.73,61.1 40.73,94.02l0 234.83 175.04 0c37.26,0 70.19,13 97.92,39.42 26.86,27.73 40.72,58.92 40.72,93.59 0,33.36 -13.86,64.56 -40.72,94.02 -28.6,25.56 -61.53,38.13 -97.92,38.13l-175.04 0 0 811.06c0,46.8 15.6,84.06 46.79,113.08 29.9,31.19 67.15,46.79 111.79,46.79l54.59 0z"/>
  <path id="8" class="fil8" d="M32416.6 5561.94c-38.13,0 -71.48,-14.3 -100.51,-42.03 -26,-27.29 -39.43,-57.62 -39.43,-91.42l0 -1232.61c0,-32.93 13.87,-64.13 40.73,-94.03 28.16,-25.13 61.09,-37.69 99.21,-37.69 36.39,0 68.89,12.56 97.48,37.69 27.3,29.9 40.73,61.1 40.73,94.03l0 1232.61c0,33.8 -13,64.13 -39.42,91.42 -29.47,27.73 -62.39,42.03 -98.79,42.03zm0 -1543.71c-38.13,0 -71.48,-13.86 -100.51,-42.02 -26,-26.86 -39.43,-56.76 -39.43,-90.12l0 -190.2c0,-33.8 13.43,-64.56 39.43,-91.42 29.03,-27.73 62.38,-42.03 100.51,-42.03 36.39,0 69.32,14.3 98.79,42.03 26.42,26.86 39.42,57.62 39.42,91.42l0 190.2c0,33.37 -13,63.26 -39.42,90.12 -29.47,28.16 -62.39,42.02 -98.79,42.02z"/>
  <path id="9" class="fil8" d="M33447.32 5561.94c-36.39,0 -69.32,-14.3 -99.21,-42.03 -26,-27.29 -39,-57.62 -39,-91.42l0 -940.6c0,-48.1 -16.46,-86.65 -48.52,-115.69 -28.6,-29.46 -65.43,-44.18 -110.48,-44.18 -45.49,0 -82.32,14.73 -110.48,44.18 -32.07,29.04 -48.1,67.59 -48.1,115.69l0 940.6c0,34.66 -13.43,65.86 -40.73,94.03 -27.72,25.99 -60.65,39.42 -98.78,39.42 -36.4,0 -69.32,-13.43 -99.21,-39.42 -26,-29.04 -39.43,-60.23 -39.43,-94.03l0 -940.6c0,-114.38 42.03,-213.6 126.09,-298.08 87.95,-84.93 191.49,-126.94 310.65,-126.94 119.58,0 222.7,42.02 309.78,126.94 84.49,84.49 126.94,183.7 126.94,298.08l0 940.6c0,33.8 -13,64.13 -39.42,91.42 -28.6,27.73 -61.96,42.03 -100.08,42.03z"/>
  <path id="10" class="fil8" d="M34480.64 4062.86c36.39,0 69.76,13.43 100.08,40.29 26.43,28.16 39.42,58.48 39.42,91.41l0 303.28 0 639.93 0 651.19c0,114.38 -42.46,213.6 -126.94,298.08 -87.95,84.92 -191.49,126.94 -311.07,126.94 -65.86,0 -132.14,-13.87 -199.31,-41.59 -65.85,-29.04 -119.14,-68.02 -159.87,-118.28 -44.62,-55.89 -67.15,-118.28 -67.15,-187.6 0,-34.66 13,-65.42 39.43,-91.42 29.46,-28.16 62.82,-42.02 100.08,-42.02 37.26,0 70.62,13.86 100.51,42.02 25.99,26 39,56.76 39,91.42 0,9.97 3.46,19.07 9.53,27.29 6.5,7.8 17.76,16.46 33.8,26 29.46,19.5 64.55,29.03 103.98,29.03 45.92,0 82.75,-15.17 110.48,-45.49 32.06,-29.9 48.52,-68.02 48.52,-114.38l0 -244.79c-6.94,3.89 -25.99,9.53 -56.76,15.6 -30.76,6.5 -64.99,9.53 -102.25,9.53 -119.15,0 -222.27,-42.9 -309.79,-129.55 -84.49,-85.34 -126.94,-185.87 -126.94,-301.97l0 -639.93c0,-115.68 42.9,-217.06 128.25,-304.58 86.65,-83.62 189.33,-125.65 308.48,-125.65 38.99,0 75.82,4.33 110.48,13 34.65,8.23 61.09,17.76 78.85,27.73 5.64,-9.1 19.07,-19.07 39.42,-29.9 19.94,-10.4 43.33,-15.6 69.76,-15.6zm-298.51 1241.28c45.92,0 83.18,-16.04 111.78,-48.1 31.19,-29.03 47.23,-68.45 47.23,-118.27l0 -639.93c0,-48.09 -16.46,-87.52 -48.52,-117.84 -27.73,-31.19 -64.56,-46.79 -110.48,-46.79 -43.77,0 -80.58,15.6 -110.48,46.79 -32.07,30.32 -48.1,69.76 -48.1,117.84l0 639.93c0,48.95 16.03,89.25 48.1,120.44 29.9,30.76 66.71,45.93 110.48,45.93z"/>
  <path id="11" class="fil8" d="M37188.07 4060.26c36.39,0 69.76,13.43 100.08,40.29 25.56,28.16 38.13,58.49 38.13,91.42l0 2.59 0 1585.73c0,113.95 -42.03,214.04 -125.65,299.39 -87.95,83.62 -191.49,125.64 -311.07,125.64 -67.59,0 -133.88,-13.86 -199.31,-42.02 -65.85,-28.6 -119.14,-68.02 -159.87,-117.85 -44.62,-55.89 -67.15,-118.71 -67.15,-188.03 0,-34.65 13,-64.99 39.43,-91.41 27.72,-27.73 61.09,-41.6 100.08,-41.6 37.26,0 70.62,13.87 100.51,41.6 25.13,26.42 38.13,56.76 38.13,91.41 0,19.5 14.3,37.26 42.9,53.29 29.46,19.5 64.99,29.46 105.28,29.46 45.05,0 81.88,-15.6 110.48,-45.92 32.06,-29.47 48.52,-67.59 48.52,-113.95l0 -243.92c-7.8,4.33 -27.3,9.1 -58.05,15.17 -30.76,6.07 -64.56,9.1 -100.95,9.1 -119.15,0 -222.27,-42.03 -309.79,-125.65 -84.49,-85.78 -126.94,-185.44 -126.94,-299.82l0 -940.61c0,-33.79 13.43,-64.12 39.43,-91.41 29.03,-27.73 62.38,-41.6 100.51,-41.6 36.39,0 69.32,13.87 98.79,41.6 26.42,27.29 39.42,57.62 39.42,91.41l0 940.61c0,48.52 16.03,86.65 48.1,115.68 29.03,29.47 65.85,44.19 110.48,44.19 45.05,0 81.88,-14.73 110.48,-44.19 32.06,-29.03 48.52,-67.15 48.52,-115.68l0 -940.61 0 -2.59c0,-32.93 13.43,-64.12 40.29,-93.59 28.16,-25.56 61.09,-38.13 99.21,-38.13z"/>
  <path id="12" class="fil8" d="M37914.21 5561.94c-115.25,0 -215.33,-34.66 -301.12,-103.12 -85.35,-71.92 -128.25,-155.97 -128.25,-252.59l0 -92.72c0,-32.93 13.43,-62.82 39.43,-90.11 29.9,-27.73 62.81,-41.6 99.21,-41.6 38.13,0 71.48,13.87 100.08,41.6 26.42,27.29 39.42,57.19 39.42,90.11l0 92.72c0,21.23 13.43,41.16 40.72,59.79 24.27,20.37 61.1,30.32 110.49,30.32 48.09,0 84.48,-9.96 109.17,-30.32 26.86,-18.63 40.29,-38.56 40.29,-59.79l0 -201.9 -577.53 -150.77 -1.31 -428.93c0,-97.48 42.9,-182.83 128.25,-256.48 88.38,-70.19 191.07,-105.28 308.48,-105.28 117.84,0 220.96,35.09 309.78,105.28 84.49,73.65 126.94,159 126.94,256.48l0 123.05c0,32.92 -13.43,64.12 -40.72,94.02 -27.73,25.99 -60.23,39 -97.49,39 -39,0 -71.92,-13 -99.21,-39 -26.86,-29.9 -40.29,-61.1 -40.29,-94.02l0 -123.05c0,-23.83 -14.73,-45.05 -43.33,-63.68 -26.43,-22.1 -64.99,-32.93 -115.68,-32.93 -50.69,0 -89.26,10.83 -115.25,32.93 -29.03,18.63 -43.33,39.85 -43.33,63.68l1.3 227.03 578.83 151.21 0 403.36c0,96.62 -42.89,180.67 -128.24,252.59 -85.35,68.45 -185.87,103.12 -300.68,103.12z"/>
  <path id="13" class="fil8" d="M39008.19 5296.34c38.13,0 71.05,13.43 99.21,39.43 26.86,28.59 40.72,59.79 40.72,92.71 0,34.66 -13.86,65.86 -40.72,94.03 -28.17,25.99 -61.09,39.42 -99.21,39.42l-54.59 0c-119.15,0 -221.83,-41.6 -308.48,-124.78 -85.35,-86.22 -128.25,-186.31 -128.25,-300.69l0 -1311.04c0,-32.92 13.87,-64.55 40.73,-94.02 27.29,-26.42 60.22,-39.42 99.21,-39.42 37.26,0 69.76,13 97.48,39.42 27.3,29.47 40.73,61.1 40.73,94.02l0 234.83 175.04 0c37.26,0 70.19,13 97.92,39.42 26.86,27.73 40.72,58.92 40.72,93.59 0,33.36 -13.86,64.56 -40.72,94.02 -28.6,25.56 -61.53,38.13 -97.92,38.13l-175.04 0 0 811.06c0,46.8 15.6,84.06 46.79,113.08 29.9,31.19 67.15,46.79 111.79,46.79l54.59 0z"/>
  <path id="14" class="fil8" d="M39760.76 5561.94l-54.59 0c-119.15,0 -222.7,-42.03 -310.65,-125.65 -84.06,-85.78 -126.09,-185.44 -126.09,-299.82l0 -648.58c0,-114.38 42.03,-213.6 126.09,-298.08 87.95,-84.93 191.49,-126.94 310.65,-126.94 119.58,0 222.7,42.02 309.78,126.94 84.49,84.49 126.94,183.7 126.94,298.08l0 111.78c0,113.51 -42.46,212.73 -126.94,298.08 -87.08,84.05 -190.2,125.65 -309.78,125.65l-158.58 0 0 113.07c0,47.23 16.03,85.35 48.1,114.38 28.16,30.33 64.99,45.49 110.48,45.49l54.59 0c36.39,0 69.32,14.3 99.21,42.03 25.99,26.86 39.42,57.2 39.42,90.11 0,33.8 -13.43,64.13 -39.42,91.42 -29.9,27.73 -62.82,42.03 -99.21,42.03zm-213.17 -803.69l158.58 0c45.05,0 81.88,-14.74 110.48,-44.19 32.06,-29.9 48.52,-68.02 48.52,-114.38l0 -111.78c0,-48.1 -16.46,-86.65 -48.52,-115.69 -28.6,-29.46 -65.43,-44.18 -110.48,-44.18 -45.49,0 -82.32,14.73 -110.48,44.18 -32.07,29.04 -48.1,67.59 -48.1,115.69l0 270.35z"/>
  <path id="15" class="fil8" d="M41339.98 4062.86c119.15,0 223.13,42.02 311.08,126.94 83.62,84.49 125.64,183.7 125.64,298.08l0 940.6c0,33.8 -12.99,64.13 -39.42,91.42 -29.46,27.73 -62.82,42.03 -99.21,42.03 -37.7,0 -71.48,-14.3 -100.08,-42.03 -26.43,-27.29 -39.42,-57.62 -39.42,-91.42l0 -940.6c0,-48.1 -16.04,-86.65 -48.1,-115.69 -29.03,-29.46 -65.86,-44.18 -110.48,-44.18 -45.06,0 -81.45,14.73 -110.48,44.18 -32.06,29.04 -48.1,67.59 -48.1,115.69l0 940.6c0,33.8 -12.99,64.13 -39.42,91.42 -28.6,27.73 -62.38,42.03 -100.51,42.03 0,0 0,0 0,0 0,0 0,0 -0.44,0 -0.43,0 -0.43,0 -0.43,0 0,0 0,0 0,0 0,0 -0.44,0 -0.87,0 -0.43,0 -0.43,0 -0.43,0 0,0 0,0 0,0 0,0 -0.44,0 -0.87,0 -0.44,0 -0.44,0 -0.44,0 0,0 0,0 0,0 0,0 0,0 0,0 0,0 -0.43,0 -0.87,0 -0.43,0 -0.43,0 -0.43,0 0,0 0,0 0,0 -36.39,0 -69.32,-13.43 -99.21,-39.42 -25.99,-29.04 -39.42,-60.23 -39.42,-94.03l0 -940.6c0,-48.1 -16.04,-86.65 -48.1,-115.69 -28.6,-29.46 -65.86,-44.18 -111.78,-44.18 -44.63,0 -81.45,14.73 -110.48,44.18 -32.07,29.04 -48.1,67.59 -48.1,115.69l0 940.6c0,33.8 -13,64.99 -39.42,94.03 -29.47,25.99 -62.39,39.42 -98.79,39.42 -38.13,0 -71.06,-13.43 -99.21,-39.42 -26.86,-28.17 -40.73,-59.36 -40.73,-94.03l0 -940.6c0,-114.38 42.46,-213.6 126.94,-298.08 87.52,-84.93 190.64,-126.94 309.79,-126.94 63.68,0 122.17,10.83 175.47,32.06 53.28,21.66 94.88,48.95 125.65,81.88 30.32,-32.93 72.35,-60.22 125.64,-81.88 53.29,-21.23 111.35,-32.06 175.04,-32.06z"/>
 </g>
</svg>
